<svg width="427" height="373" viewBox="0 0 427 373" fill="none" xmlns="http://www.w3.org/2000/svg">
<path opacity="0.42" d="M100.19 344.18C98.24 346.32 101.44 349.3 104.17 350.33C122.015 357.165 140.96 360.68 160.07 360.7L156.82 366.24C186.776 374.561 218.411 374.723 248.45 366.71L243.82 359.54L270.66 358.21C274.92 358.01 289.87 359.77 292.7 355.98C300.84 345.07 267.71 344.64 264.15 344.5C219.159 342.612 174.118 342.196 129.1 343.25C124.53 343.41 103.03 341.15 100.19 344.18V344.18Z" fill="#525369"/>
<path d="M251.06 245.87C250.34 260.04 249.49 274.24 248.5 288.47C248.2 295.66 247.27 302.81 245.71 309.83C244.665 314.004 243.19 318.059 241.31 321.93C240.49 323.6 239.34 325.41 237.51 325.59C235.21 325.83 233.63 323.37 232.81 321.21C228.7 310.58 228.7 298.94 228.43 287.57C228.28 281.68 228.05 275.8 227.73 269.91C227.35 262.8 226.57 255.11 221.77 249.84C220.31 248.25 218.53 246.94 217.09 245.31C211.24 238.67 212.99 227.47 219.29 221.21C224.19 216.36 238.42 209.96 245.29 213.97C253.44 218.73 251.45 238.21 251.06 245.87V245.87Z" fill="#06092B"/>
<path d="M209.95 221.54C212.006 224.798 212.969 228.627 212.7 232.47C212.37 244.01 205.51 254.23 202.07 265.27C196.92 281.95 199.79 299.82 200.31 317.31C200.55 319.72 200.25 322.16 199.43 324.44C198.995 325.568 198.227 326.537 197.229 327.219C196.231 327.901 195.049 328.264 193.84 328.26C192.088 327.936 190.509 326.996 189.39 325.61C180.95 316.57 181.23 302.79 179.83 290.51C178.27 276.84 174.03 263.64 170.42 250.36C168.79 244.37 167.26 238.23 167.64 232.04C168.03 225.84 170.64 219.48 175.74 215.98C185.03 209.63 203.32 212.04 209.95 221.54V221.54Z" fill="#06092B"/>
<path opacity="0.52" d="M56.7 202.32H346.4C347.726 202.32 348.998 201.793 349.936 200.856C350.873 199.918 351.4 198.646 351.4 197.32V192.94C351.4 191.614 350.873 190.342 349.936 189.404C348.998 188.467 347.726 187.94 346.4 187.94H56.7C55.3739 187.94 54.1021 188.467 53.1645 189.404C52.2268 190.342 51.7 191.614 51.7 192.94V197.32C51.7 198.646 52.2268 199.918 53.1645 200.856C54.1021 201.793 55.3739 202.32 56.7 202.32V202.32Z" fill="#525369"/>
<path d="M110.2 169.45H306.23C315.44 169.45 322.91 161.97 322.91 152.75V16.7C322.91 7.47999 315.44 0.00999451 306.23 0.00999451H110.2C108.009 0.00999411 105.839 0.441766 103.815 1.28064C101.79 2.11951 99.9509 3.34905 98.4019 4.89899C96.8529 6.44893 95.6245 8.2889 94.7868 10.3138C93.9492 12.3386 93.5187 14.5087 93.52 16.7V152.77C93.52 161.98 100.99 169.46 110.2 169.46V169.45Z" fill="#3CD3C1"/>
<path d="M110.2 169.45H306.23C315.44 169.45 322.91 161.97 322.91 152.75V16.7C322.91 7.47999 315.44 0.00999451 306.23 0.00999451H110.2C108.009 0.00999411 105.839 0.441766 103.815 1.28064C101.79 2.11951 99.9509 3.34905 98.4019 4.89899C96.8529 6.44893 95.6245 8.2889 94.7868 10.3138C93.9492 12.3386 93.5187 14.5087 93.52 16.7V152.77C93.52 161.98 100.99 169.46 110.2 169.46V169.45Z" fill="#3CD3C1"/>
<path d="M165.79 26.53H123.41C122.963 26.53 122.535 26.7075 122.219 27.0235C121.903 27.3395 121.725 27.7681 121.725 28.215C121.725 28.6619 121.903 29.0905 122.219 29.4065C122.535 29.7225 122.963 29.9 123.41 29.9H165.79C166.237 29.9 166.665 29.7225 166.981 29.4065C167.297 29.0905 167.475 28.6619 167.475 28.215C167.475 27.7681 167.297 27.3395 166.981 27.0235C166.665 26.7075 166.237 26.53 165.79 26.53V26.53ZM148.08 33.03H123.3C122.882 33.03 122.482 33.1959 122.186 33.4913C121.891 33.7867 121.725 34.1873 121.725 34.605C121.725 35.0227 121.891 35.4233 122.186 35.7187C122.482 36.0141 122.882 36.18 123.3 36.18H148.08C148.498 36.18 148.898 36.0141 149.194 35.7187C149.489 35.4233 149.655 35.0227 149.655 34.605C149.655 34.1873 149.489 33.7867 149.194 33.4913C148.898 33.1959 148.498 33.03 148.08 33.03V33.03ZM247.19 33.03H162.49C162.068 33.03 161.664 33.1975 161.366 33.4957C161.068 33.7939 160.9 34.1983 160.9 34.62C160.9 35.0417 161.068 35.4461 161.366 35.7443C161.664 36.0425 162.068 36.21 162.49 36.21H247.19C247.612 36.21 248.016 36.0425 248.314 35.7443C248.612 35.4461 248.78 35.0417 248.78 34.62C248.78 34.1983 248.612 33.7939 248.314 33.4957C248.016 33.1975 247.612 33.03 247.19 33.03ZM304.86 33.03H258.58C258.158 33.03 257.754 33.1975 257.456 33.4957C257.157 33.7939 256.99 34.1983 256.99 34.62C256.99 35.0417 257.157 35.4461 257.456 35.7443C257.754 36.0425 258.158 36.21 258.58 36.21H304.86C305.282 36.21 305.686 36.0425 305.984 35.7443C306.282 35.4461 306.45 35.0417 306.45 34.62C306.45 34.1983 306.282 33.7939 305.984 33.4957C305.686 33.1975 305.282 33.03 304.86 33.03ZM172.98 39.55H137.91C137.468 39.55 137.045 39.7254 136.733 40.0377C136.42 40.3499 136.245 40.7734 136.245 41.215C136.245 41.6566 136.42 42.0801 136.733 42.3923C137.045 42.7046 137.468 42.88 137.91 42.88H172.98C173.422 42.88 173.845 42.7046 174.157 42.3923C174.47 42.0801 174.645 41.6566 174.645 41.215C174.645 40.7734 174.47 40.3499 174.157 40.0377C173.845 39.7254 173.422 39.55 172.98 39.55ZM192.64 46.04H150.26C149.814 46.04 149.387 46.217 149.072 46.5321C148.757 46.8471 148.58 47.2744 148.58 47.72C148.58 48.1656 148.757 48.5929 149.072 48.9079C149.387 49.223 149.814 49.4 150.26 49.4H192.64C193.086 49.4 193.513 49.223 193.828 48.9079C194.143 48.5929 194.32 48.1656 194.32 47.72C194.32 47.2744 194.143 46.8471 193.828 46.5321C193.513 46.217 193.086 46.04 192.64 46.04ZM233.8 46.04H199.17C198.914 46.0212 198.656 46.0555 198.414 46.1407C198.171 46.2259 197.949 46.3602 197.76 46.5352C197.572 46.7103 197.422 46.9222 197.319 47.1579C197.216 47.3936 197.163 47.6479 197.163 47.905C197.163 48.1621 197.216 48.4164 197.319 48.6521C197.422 48.8878 197.572 49.0997 197.76 49.2748C197.949 49.4498 198.171 49.5841 198.414 49.6693C198.656 49.7545 198.914 49.7888 199.17 49.77H233.79C234.261 49.7355 234.702 49.524 235.023 49.1781C235.345 48.8321 235.523 48.3773 235.523 47.905C235.523 47.4327 235.345 46.9779 235.023 46.6319C234.702 46.286 234.261 46.0745 233.79 46.04H233.8ZM182.26 52.54H150.08C149.664 52.54 149.264 52.7054 148.97 52.9998C148.675 53.2943 148.51 53.6936 148.51 54.11C148.51 54.5264 148.675 54.9257 148.97 55.2202C149.264 55.5146 149.664 55.68 150.08 55.68H182.26C182.676 55.68 183.076 55.5146 183.37 55.2202C183.665 54.9257 183.83 54.5264 183.83 54.11C183.83 53.6936 183.665 53.2943 183.37 52.9998C183.076 52.7054 182.676 52.54 182.26 52.54V52.54ZM258.37 52.54H188.97C188.73 52.5218 188.488 52.5534 188.261 52.6329C188.033 52.7123 187.825 52.8379 187.648 53.0017C187.471 53.1655 187.33 53.364 187.234 53.5849C187.138 53.8057 187.088 54.044 187.088 54.285C187.088 54.526 187.138 54.7643 187.234 54.9851C187.33 55.206 187.471 55.4045 187.648 55.5683C187.825 55.7321 188.033 55.8577 188.261 55.9371C188.488 56.0166 188.73 56.0482 188.97 56.03H258.37C258.834 56.03 259.279 55.8456 259.607 55.5174C259.936 55.1892 260.12 54.7441 260.12 54.28C260.12 53.8159 259.936 53.3708 259.607 53.0426C259.279 52.7144 258.834 52.53 258.37 52.53V52.54ZM165.79 61.33H123.41C122.964 61.33 122.537 61.507 122.222 61.8221C121.907 62.1371 121.73 62.5644 121.73 63.01C121.73 63.4556 121.907 63.8829 122.222 64.1979C122.537 64.513 122.964 64.69 123.41 64.69H165.79C166.236 64.69 166.663 64.513 166.978 64.1979C167.293 63.8829 167.47 63.4556 167.47 63.01C167.47 62.5644 167.293 62.1371 166.978 61.8221C166.663 61.507 166.236 61.33 165.79 61.33ZM148.08 67.83H123.3C122.882 67.83 122.482 67.9959 122.186 68.2913C121.891 68.5867 121.725 68.9873 121.725 69.405C121.725 69.8227 121.891 70.2233 122.186 70.5187C122.482 70.8141 122.882 70.98 123.3 70.98H148.08C148.498 70.98 148.898 70.8141 149.194 70.5187C149.489 70.2233 149.655 69.8227 149.655 69.405C149.655 68.9873 149.489 68.5867 149.194 68.2913C148.898 67.9959 148.498 67.83 148.08 67.83V67.83ZM247.19 67.83H162.49C162.271 67.8126 162.051 67.8407 161.844 67.9125C161.637 67.9842 161.446 68.0981 161.285 68.247C161.124 68.3959 160.995 68.5765 160.907 68.7775C160.819 68.9785 160.774 69.1956 160.774 69.415C160.774 69.6344 160.819 69.8515 160.907 70.0525C160.995 70.2535 161.124 70.4341 161.285 70.583C161.446 70.7319 161.637 70.8458 161.844 70.9175C162.051 70.9893 162.271 71.0174 162.49 71H247.19C247.409 71.0174 247.629 70.9893 247.836 70.9175C248.043 70.8458 248.234 70.7319 248.395 70.583C248.556 70.4341 248.685 70.2535 248.773 70.0525C248.861 69.8515 248.906 69.6344 248.906 69.415C248.906 69.1956 248.861 68.9785 248.773 68.7775C248.685 68.5765 248.556 68.3959 248.395 68.247C248.234 68.0981 248.043 67.9842 247.836 67.9125C247.629 67.8407 247.409 67.8126 247.19 67.83V67.83ZM304.86 67.83H258.58C258.361 67.8126 258.141 67.8407 257.934 67.9125C257.727 67.9842 257.536 68.0981 257.375 68.247C257.214 68.3959 257.085 68.5765 256.997 68.7775C256.909 68.9785 256.864 69.1956 256.864 69.415C256.864 69.6344 256.909 69.8515 256.997 70.0525C257.085 70.2535 257.214 70.4341 257.375 70.583C257.536 70.7319 257.727 70.8458 257.934 70.9175C258.141 70.9893 258.361 71.0174 258.58 71H304.86C305.259 70.9683 305.631 70.7876 305.902 70.4938C306.173 70.2001 306.324 69.8149 306.324 69.415C306.324 69.0151 306.173 68.6299 305.902 68.3362C305.631 68.0424 305.259 67.8617 304.86 67.83ZM172.98 74.33H137.91C137.47 74.33 137.048 74.5049 136.736 74.8162C136.425 75.1275 136.25 75.5497 136.25 75.99C136.25 76.4303 136.425 76.8525 136.736 77.1638C137.048 77.4751 137.47 77.65 137.91 77.65H172.98C173.42 77.65 173.842 77.4751 174.154 77.1638C174.465 76.8525 174.64 76.4303 174.64 75.99C174.64 75.5497 174.465 75.1275 174.154 74.8162C173.842 74.5049 173.42 74.33 172.98 74.33V74.33ZM192.64 80.84H150.26C149.814 80.84 149.387 81.017 149.072 81.3321C148.757 81.6471 148.58 82.0744 148.58 82.52C148.58 82.9656 148.757 83.3929 149.072 83.7079C149.387 84.023 149.814 84.2 150.26 84.2H192.64C193.086 84.2 193.513 84.023 193.828 83.7079C194.143 83.3929 194.32 82.9656 194.32 82.52C194.32 82.0744 194.143 81.6471 193.828 81.3321C193.513 81.017 193.086 80.84 192.64 80.84ZM233.8 80.84H199.17C198.914 80.8212 198.656 80.8555 198.414 80.9407C198.171 81.0259 197.949 81.1602 197.76 81.3352C197.572 81.5103 197.422 81.7222 197.319 81.9579C197.216 82.1936 197.163 82.4479 197.163 82.705C197.163 82.9621 197.216 83.2164 197.319 83.4521C197.422 83.6878 197.572 83.8997 197.76 84.0748C197.949 84.2498 198.171 84.3841 198.414 84.4693C198.656 84.5545 198.914 84.5888 199.17 84.57H233.79C234.261 84.5355 234.702 84.324 235.023 83.9781C235.345 83.6321 235.523 83.1773 235.523 82.705C235.523 82.2327 235.345 81.7779 235.023 81.4319C234.702 81.086 234.261 80.8745 233.79 80.84H233.8ZM182.26 87.33H150.08C149.662 87.33 149.262 87.4959 148.966 87.7913C148.671 88.0867 148.505 88.4873 148.505 88.905C148.505 89.3227 148.671 89.7233 148.966 90.0187C149.262 90.3141 149.662 90.48 150.08 90.48H182.26C182.678 90.48 183.078 90.3141 183.374 90.0187C183.669 89.7233 183.835 89.3227 183.835 88.905C183.835 88.4873 183.669 88.0867 183.374 87.7913C183.078 87.4959 182.678 87.33 182.26 87.33ZM258.37 87.33H188.97C188.506 87.33 188.061 87.5144 187.733 87.8426C187.404 88.1707 187.22 88.6159 187.22 89.08C187.22 89.5441 187.404 89.9892 187.733 90.3174C188.061 90.6456 188.506 90.83 188.97 90.83H258.37C258.834 90.83 259.279 90.6456 259.607 90.3174C259.936 89.9892 260.12 89.5441 260.12 89.08C260.12 88.6159 259.936 88.1707 259.607 87.8426C259.279 87.5144 258.834 87.33 258.37 87.33ZM165.79 96.12H123.41C122.964 96.12 122.537 96.297 122.222 96.6121C121.907 96.9271 121.73 97.3544 121.73 97.8C121.73 98.2456 121.907 98.6729 122.222 98.9879C122.537 99.303 122.964 99.48 123.41 99.48H165.79C166.236 99.48 166.663 99.303 166.978 98.9879C167.293 98.6729 167.47 98.2456 167.47 97.8C167.47 97.3544 167.293 96.9271 166.978 96.6121C166.663 96.297 166.236 96.12 165.79 96.12ZM148.08 102.61H123.3C122.882 102.61 122.482 102.776 122.186 103.071C121.891 103.367 121.725 103.767 121.725 104.185C121.725 104.603 121.891 105.003 122.186 105.299C122.482 105.594 122.882 105.76 123.3 105.76H148.08C148.498 105.76 148.898 105.594 149.194 105.299C149.489 105.003 149.655 104.603 149.655 104.185C149.655 103.767 149.489 103.367 149.194 103.071C148.898 102.776 148.498 102.61 148.08 102.61V102.61ZM247.19 102.61H162.49C162.068 102.61 161.664 102.778 161.366 103.076C161.068 103.374 160.9 103.778 160.9 104.2C160.9 104.622 161.068 105.026 161.366 105.324C161.664 105.622 162.068 105.79 162.49 105.79H247.19C247.612 105.79 248.016 105.622 248.314 105.324C248.612 105.026 248.78 104.622 248.78 104.2C248.78 103.778 248.612 103.374 248.314 103.076C248.016 102.778 247.612 102.61 247.19 102.61ZM304.86 102.61H258.58C258.158 102.61 257.754 102.778 257.456 103.076C257.157 103.374 256.99 103.778 256.99 104.2C256.99 104.622 257.157 105.026 257.456 105.324C257.754 105.622 258.158 105.79 258.58 105.79H304.86C305.282 105.79 305.686 105.622 305.984 105.324C306.282 105.026 306.45 104.622 306.45 104.2C306.45 103.778 306.282 103.374 305.984 103.076C305.686 102.778 305.282 102.61 304.86 102.61ZM172.98 109.11H137.91C137.47 109.11 137.048 109.285 136.736 109.596C136.425 109.908 136.25 110.33 136.25 110.77C136.25 111.21 136.425 111.632 136.736 111.944C137.048 112.255 137.47 112.43 137.91 112.43H172.98C173.42 112.43 173.842 112.255 174.154 111.944C174.465 111.632 174.64 111.21 174.64 110.77C174.64 110.33 174.465 109.908 174.154 109.596C173.842 109.285 173.42 109.11 172.98 109.11V109.11ZM192.64 115.6H150.26C149.813 115.6 149.385 115.778 149.069 116.094C148.753 116.41 148.575 116.838 148.575 117.285C148.575 117.732 148.753 118.16 149.069 118.476C149.385 118.792 149.813 118.97 150.26 118.97H192.64C193.086 118.97 193.513 118.793 193.828 118.478C194.143 118.163 194.32 117.736 194.32 117.29C194.32 116.844 194.143 116.417 193.828 116.102C193.513 115.787 193.086 115.61 192.64 115.61V115.6ZM233.8 115.6H199.17C198.674 115.6 198.198 115.797 197.848 116.148C197.497 116.498 197.3 116.974 197.3 117.47C197.3 117.966 197.497 118.442 197.848 118.792C198.198 119.143 198.674 119.34 199.17 119.34H233.79C234.261 119.305 234.702 119.094 235.023 118.748C235.345 118.402 235.523 117.947 235.523 117.475C235.523 117.003 235.345 116.548 235.023 116.202C234.702 115.856 234.261 115.645 233.79 115.61L233.8 115.6ZM182.26 122.12H150.08C149.662 122.12 149.262 122.286 148.966 122.581C148.671 122.877 148.505 123.277 148.505 123.695C148.505 124.113 148.671 124.513 148.966 124.809C149.262 125.104 149.662 125.27 150.08 125.27H182.26C182.678 125.27 183.078 125.104 183.374 124.809C183.669 124.513 183.835 124.113 183.835 123.695C183.835 123.277 183.669 122.877 183.374 122.581C183.078 122.286 182.678 122.12 182.26 122.12V122.12ZM258.37 122.12H188.97C188.506 122.12 188.061 122.304 187.733 122.633C187.404 122.961 187.22 123.406 187.22 123.87C187.22 124.334 187.404 124.779 187.733 125.107C188.061 125.436 188.506 125.62 188.97 125.62H258.37C258.834 125.62 259.279 125.436 259.607 125.107C259.936 124.779 260.12 124.334 260.12 123.87C260.12 123.406 259.936 122.961 259.607 122.633C259.279 122.304 258.834 122.12 258.37 122.12Z" fill="#FAFAFA"/>
<path d="M263.42 178.63C264.37 181.28 265.26 184.07 264.67 186.81C264.46 187.76 264.07 188.66 263.54 189.47C260.89 193.59 254.59 194.23 250.26 191.75C245.94 189.28 243.49 184.55 242.3 179.8C241.83 178.2 241.67 176.53 241.83 174.88C242.22 172 244.13 169.57 246.13 167.44C248.78 164.68 253.65 161.06 257.23 164.38C260.43 167.36 262 174.65 263.43 178.63H263.42ZM154.82 177.83C154.237 178.926 153.964 180.16 154.03 181.4C154.19 182.2 154.51 182.96 154.96 183.64C156.08 185.64 157.57 187.42 159.36 188.86C161.16 190.303 163.439 191.011 165.74 190.84C169.14 190.47 171.84 187.77 173.64 184.86C175.518 182.095 176.505 178.822 176.47 175.48C176.368 173.719 175.877 172.003 175.033 170.454C174.19 168.904 173.014 167.561 171.59 166.52C169.03 164.66 163.69 162.97 160.79 165.1C157.89 167.23 156.26 174.4 154.82 177.83V177.83ZM233.24 80.24C233.711 80.102 234.208 80.0745 234.692 80.1595C235.176 80.2444 235.634 80.4397 236.03 80.73C236.58 81.36 236.91 82.16 236.95 83C237.28 84.7 237.35 86.43 237.15 88.14C236.926 89.8452 236.086 91.4098 234.79 92.54C233.79 93.28 232.65 93.84 231.45 94.16C230.55 94.57 229.51 94.61 228.58 94.26C228.174 93.9836 227.836 93.6203 227.588 93.1965C227.341 92.7727 227.191 92.299 227.15 91.81C226.1 86.67 227.7 81.25 233.25 80.24H233.24ZM184.9 78.46C184.372 78.3271 183.818 78.3271 183.29 78.46C182.713 78.7298 182.225 79.1597 181.884 79.6986C181.544 80.2375 181.366 80.8627 181.37 81.5C181.29 82.75 181.37 84 181.61 85.23C181.84 87.29 182.68 89.23 184.03 90.8C184.706 91.5567 185.618 92.0631 186.618 92.2373C187.618 92.4115 188.648 92.2433 189.54 91.76C195.18 87.86 189.87 79.55 184.89 78.46H184.9ZM220.64 115.6C220.9 116.8 220.97 118.04 220.85 119.26C220.36 122.66 216.97 125.04 213.57 125.46C210.17 125.89 206.77 124.75 203.6 123.49C202.627 123.159 201.727 122.643 200.95 121.97C200.172 121.159 199.641 120.142 199.42 119.04C199.04 117.12 198.92 115.16 199.08 113.22L199.28 106.36C199.22 105.02 199.48 103.68 200.06 102.46C201.38 100.19 204.43 99.81 207.06 99.64C210.53 99.49 215.76 99.64 218.04 102.8C220.32 105.96 220.06 111.91 220.64 115.6V115.6Z" fill="#F8C0DD"/>
<path d="M231.31 59.63C232.35 62.53 232.71 65.61 232.38 68.67C232.08 75.72 231.35 82.74 230.18 89.7C229.3 94.92 227.92 100.53 223.78 103.82C222.61 104.62 221.49 105.51 220.45 106.48C219.74 107.25 219.23 108.21 218.57 109.04C215.21 113.26 208.44 113.26 203.82 110.45C199.19 107.65 196.23 102.84 193.52 98.16C190.54 93.01 187.57 87.61 187.04 81.67C186.61 76.97 187.71 72.01 185.91 67.64C184.59 64.43 181.84 61.85 181.23 58.44C180.99 56.14 181.27 53.81 182.05 51.64C183.13 47.77 184.77 43.3 188.69 42.25C191.55 41.48 194.49 42.95 197.46 43.04C201.23 43.17 205.06 41.06 208.65 42.25C213.25 43.79 215.29 49.11 219.88 50.84C224.48 52.56 229.18 54.74 231.32 59.64L231.31 59.63Z" fill="#06092B"/>
<path d="M246.56 127.73C233.09 116.55 213.66 116.83 196.34 119.2C189.18 120.17 181.89 121.45 175.6 125.01C165.05 130.99 158.81 142.55 155.53 154.25C153.79 160.45 152.88 167.53 156.36 172.98C160.01 178.61 167.28 180.55 173.96 181.3C174.97 181.32 175.97 181.6 176.85 182.13C177.76 182.99 178.34 184.14 178.47 185.39C180.32 195.09 176.55 205.99 181.53 214.5C186.35 222.73 197.13 224.9 206.62 225.62C218.9 226.57 232.22 226.22 242.19 218.98C243.845 217.867 245.251 216.424 246.32 214.74C247.97 211.92 248.06 208.5 248.1 205.24C248.2 198.14 245.62 183.87 249.07 177.62C251.97 172.41 260.21 172.38 263.1 166.43C268.59 155.11 254.8 134.55 246.56 127.73Z" fill="#19A727"/>
<path d="M198 221.6L198.1 238.27C198.16 238.92 198.06 239.57 197.79 240.14C197.35 240.74 196.72 241.12 196.03 241.21C191.98 242.26 187.75 241.66 183.61 241.68C179.46 241.69 174.98 242.51 172 245.75C176.53 249.5 182.37 250.52 187.98 251.25C196.28 252.36 204.59 253.09 212.92 253.45C218.32 253.9 223.75 253.59 229.08 252.52C233.854 251.425 238.267 249.125 241.9 245.84C238.24 241.44 232.17 241.53 226.81 241.53C221.61 241.53 216.39 241.19 211.21 240.53C210.63 240.54 210.05 240.42 209.51 240.16C208.961 239.899 208.473 239.524 208.08 239.06C207.643 238.178 207.469 237.188 207.58 236.21C207.68 232.51 208.1 228.81 208.83 225.21C208.975 224.033 209.4 222.908 210.07 221.93C211.197 220.834 212.681 220.181 214.25 220.09C220.363 218.947 226.33 217.126 232.04 214.66C234.446 213.762 236.654 212.403 238.54 210.66C243.71 205.4 243.49 196.36 242.29 188.66C232.971 194.769 222.156 198.206 211.02 198.6C203.5 198.83 187.18 195.22 181.89 203.32C179.26 207.42 182.06 211.2 184.96 214.02C186.22 215.23 198.01 221.43 198.01 221.6H198Z" fill="url(#paint0_linear)"/>
<path d="M225.09 149.49H193.49C187.576 149.49 181.904 151.839 177.722 156.022C173.539 160.204 171.19 165.876 171.19 171.79V181.22C171.19 187.134 173.539 192.806 177.722 196.988C181.904 201.171 187.576 203.52 193.49 203.52H225.09C231.004 203.52 236.676 201.171 240.858 196.988C245.041 192.806 247.39 187.134 247.39 181.22V171.8C247.391 168.871 246.815 165.97 245.695 163.263C244.575 160.556 242.933 158.097 240.862 156.025C238.791 153.953 236.332 152.31 233.626 151.188C230.92 150.067 228.019 149.49 225.09 149.49V149.49Z" fill="#050720"/>
<path d="M225.09 149.49H193.49C187.576 149.49 181.904 151.839 177.722 156.022C173.539 160.204 171.19 165.876 171.19 171.79V181.22C171.19 187.134 173.539 192.806 177.722 196.988C181.904 201.171 187.576 203.52 193.49 203.52H225.09C231.004 203.52 236.676 201.171 240.858 196.988C245.041 192.806 247.39 187.134 247.39 181.22V171.8C247.391 168.871 246.815 165.97 245.695 163.263C244.575 160.556 242.933 158.097 240.862 156.025C238.791 153.953 236.332 152.31 233.626 151.188C230.92 150.067 228.019 149.49 225.09 149.49V149.49Z" fill="url(#paint1_linear)"/>
<path d="M225.09 154.46H193.49C187.576 154.46 181.904 156.809 177.722 160.992C173.539 165.174 171.19 170.846 171.19 176.76V186.19C171.19 192.104 173.539 197.776 177.722 201.958C181.904 206.141 187.576 208.49 193.49 208.49H225.09C231.004 208.49 236.676 206.141 240.858 201.958C245.041 197.776 247.39 192.104 247.39 186.19V176.77C247.391 173.841 246.815 170.94 245.695 168.233C244.575 165.526 242.933 163.067 240.862 160.995C238.791 158.923 236.332 157.28 233.626 156.158C230.92 155.037 228.019 154.46 225.09 154.46V154.46Z" fill="#191C3E"/>
<path d="M221.01 184.29C218.731 185.3 216.331 186.012 213.87 186.41C207.23 187.63 199.47 187.37 194.69 182.55C193.942 181.817 193.335 180.953 192.9 180C191.57 176.77 193.31 172.87 196.17 170.83C199.02 168.78 202.65 168.23 206.14 168.06C210.42 167.86 218.54 167.12 222.27 170C226.73 173.46 226.04 181.92 221.01 184.29V184.29Z" fill="url(#paint2_linear)"/>
<path d="M208.01 261.88H208.02C209.399 261.88 210.722 261.332 211.697 260.357C212.672 259.382 213.22 258.059 213.22 256.68V181.2C213.22 179.821 212.672 178.498 211.697 177.523C210.722 176.548 209.399 176 208.02 176C206.641 176 205.318 176.548 204.343 177.523C203.368 178.498 202.82 179.821 202.82 181.2V256.7C202.82 258.079 203.368 259.402 204.343 260.377C205.318 261.352 206.641 261.9 208.02 261.9L208.01 261.88Z" fill="white"/>
<path d="M240 321.73C242.66 323.92 243.32 327.72 244.49 331.03C246.11 335.54 249.11 339.65 249.51 344.43C249.684 345.85 249.448 347.29 248.83 348.58C248.236 349.576 247.392 350.399 246.382 350.968C245.371 351.536 244.229 351.83 243.07 351.82C240.744 351.771 238.477 351.079 236.52 349.82C233.06 347.76 230.2 344.82 228.24 341.31C227.24 339.59 226.59 337.68 226.34 335.71C225.81 329.71 232.02 315.35 240 321.73V321.73Z" fill="#525369"/>
<path d="M244.95 347.08C245.137 347.429 245.235 347.819 245.235 348.215C245.235 348.611 245.137 349.001 244.95 349.35C244.65 349.68 244.24 349.9 243.8 349.97C241.97 350.33 240.07 349.98 238.49 349C236.92 348.04 235.49 346.89 234.21 345.56C232.236 343.83 230.489 341.858 229.01 339.69C227.535 337.487 226.936 334.812 227.33 332.19C228.73 324.99 235.09 331.44 237.43 334.09C240.76 337.89 243.32 342.29 244.95 347.08V347.08Z" fill="#06092B"/>
<path d="M188.01 321.87C185.36 324.07 184.69 327.87 183.53 331.17C181.9 335.69 178.9 339.81 178.51 344.57C178.332 345.995 178.564 347.442 179.18 348.74C179.776 349.736 180.622 350.558 181.634 351.124C182.647 351.691 183.79 351.983 184.95 351.97C187.27 351.92 189.54 351.23 191.49 349.97C194.96 347.91 197.81 344.97 199.78 341.46C200.78 339.74 201.43 337.83 201.66 335.85C202.19 329.85 195.98 315.45 188.01 321.87V321.87Z" fill="#525369"/>
<path d="M182.38 347.6C182.196 347.95 182.1 348.34 182.1 348.735C182.1 349.13 182.196 349.52 182.38 349.87C182.69 350.2 183.1 350.42 183.55 350.49C185.38 350.83 187.27 350.49 188.86 349.52C190.42 348.555 191.855 347.399 193.13 346.08C195.107 344.346 196.855 342.367 198.33 340.19C199.806 337.991 200.409 335.32 200.02 332.7C198.6 325.49 192.26 331.94 189.92 334.61C186.582 338.406 184.021 342.819 182.38 347.6V347.6Z" fill="#06092B"/>
<path d="M216.47 290.1C214.329 291.118 211.966 291.575 209.6 291.43C206.99 291.58 204.36 291.39 201.8 290.86C200.932 290.691 200.119 290.314 199.43 289.76C198.855 289.233 198.402 288.589 198.1 287.87C195.94 283.09 193.5 273.17 196.86 269.15C200.69 264.53 215.92 263.71 220.76 268.57C225.45 273.11 222.05 286.82 216.47 290.1V290.1Z" fill="#3CD3C1"/>
<path d="M216.47 290.1C214.329 291.118 211.966 291.575 209.6 291.43C206.99 291.58 204.36 291.39 201.8 290.86C200.932 290.691 200.119 290.314 199.43 289.76C198.855 289.233 198.402 288.589 198.1 287.87C195.94 283.09 193.5 273.17 196.86 269.15C200.69 264.53 215.92 263.71 220.76 268.57C225.45 273.11 222.05 286.82 216.47 290.1V290.1Z" fill="#393A55"/>
<path d="M205.9 335.05H212.83V290.3H205.9V335.05Z" fill="white"/>
<path d="M236.77 338.77C238.31 340.03 239.81 341.62 241.79 341.86C243.23 342.01 244.66 341.4 246.12 341.4C248.04 341.54 249.86 342.35 251.23 343.7C252.534 344.731 253.513 346.116 254.05 347.69C255.12 351.36 251.85 355.37 248.05 355.74C244.24 356.11 240.57 353.51 238.9 350.08C238.54 349.14 238.06 348.25 237.49 347.42C236.939 346.827 236.298 346.324 235.59 345.93C229.952 342.434 223.734 339.975 217.23 338.67C216.1 338.44 214.72 338.33 214 339.22C213.654 339.731 213.466 340.333 213.46 340.95C213.16 343.6 213.04 346.26 213.1 348.92C213.06 349.43 213.16 349.95 213.38 350.42C213.72 350.89 214.14 351.31 214.62 351.65C215.39 352.465 215.875 353.509 216.001 354.623C216.127 355.738 215.888 356.863 215.32 357.83C214.116 359.734 212.272 361.145 210.12 361.81C207.57 362.75 204.36 362.91 202.46 360.96C201.789 360.206 201.341 359.28 201.164 358.286C200.988 357.293 201.09 356.269 201.46 355.33C202.226 353.454 203.643 351.917 205.45 351C206.075 350.76 206.618 350.343 207.01 349.8C207.24 349.3 207.31 348.75 207.25 348.2L207.07 342.28C207.128 341.828 207.076 341.368 206.919 340.94C206.763 340.512 206.506 340.128 206.17 339.82C205.638 339.544 205.028 339.456 204.44 339.57C194.678 340.323 185.33 343.828 177.48 349.68C178.92 350.8 178.67 353.21 177.38 354.49C175.963 355.66 174.141 356.225 172.31 356.06C170.29 356.08 168.31 355.5 166.63 354.4C165.787 353.849 165.101 353.09 164.637 352.197C164.173 351.304 163.946 350.306 163.98 349.3C164.113 348.28 164.51 347.312 165.131 346.491C165.751 345.671 166.575 345.026 167.52 344.62C169.42 343.82 171.52 343.6 173.54 343.97C174.58 344.19 175.64 344.27 176.71 344.22C177.906 343.971 179.043 343.496 180.06 342.82C189.26 337.62 199.46 334.46 209.98 333.52C218.79 332.74 229.64 332.92 236.78 338.77H236.77Z" fill="white"/>
<path d="M167.9 273.7H245.42C254.62 273.7 262.08 266.23 262.08 257.02V255.97C262.08 246.76 254.62 239.29 245.42 239.29H167.9C158.7 239.29 151.23 246.76 151.23 255.97V257.02C151.23 266.22 158.7 273.69 167.9 273.69V273.7Z" fill="#3CD3C1"/>
<path d="M167.9 273.7H245.42C254.62 273.7 262.08 266.23 262.08 257.02V255.97C262.08 246.76 254.62 239.29 245.42 239.29H167.9C158.7 239.29 151.23 246.76 151.23 255.97V257.02C151.23 266.22 158.7 273.69 167.9 273.69V273.7Z" fill="#525369"/>
<path d="M110 115.65H4C1.79086 115.65 0 117.441 0 119.65V165.65C0 167.859 1.79086 169.65 4 169.65H110C112.209 169.65 114 167.859 114 165.65V119.65C114 117.441 112.209 115.65 110 115.65Z" fill="#FAFAFA"/>
<path opacity="0.7" d="M40.17 127.65H12.1C11.8056 127.65 11.5233 127.767 11.3151 127.975C11.1069 128.183 10.99 128.466 10.99 128.76C10.99 129.054 11.1069 129.337 11.3151 129.545C11.5233 129.753 11.8056 129.87 12.1 129.87H40.16C40.4544 129.87 40.7367 129.753 40.9449 129.545C41.1531 129.337 41.27 129.054 41.27 128.76C41.27 128.466 41.1531 128.183 40.9449 127.975C40.7367 127.767 40.4544 127.65 40.16 127.65H40.17ZM28.44 131.96H12.04C11.7642 131.96 11.4996 132.07 11.3046 132.265C11.1096 132.46 11 132.724 11 133C11 133.276 11.1096 133.54 11.3046 133.735C11.4996 133.93 11.7642 134.04 12.04 134.04H28.44C28.7158 134.04 28.9804 133.93 29.1754 133.735C29.3704 133.54 29.48 133.276 29.48 133C29.48 132.724 29.3704 132.46 29.1754 132.265C28.9804 132.07 28.7158 131.96 28.44 131.96ZM94.03 131.96H37.98C37.7015 131.96 37.4344 132.071 37.2375 132.268C37.0406 132.464 36.93 132.732 36.93 133.01C36.93 133.288 37.0406 133.556 37.2375 133.752C37.4344 133.949 37.7015 134.06 37.98 134.06H94.03C94.3085 134.06 94.5755 133.949 94.7725 133.752C94.9694 133.556 95.08 133.288 95.08 133.01C95.08 132.732 94.9694 132.464 94.7725 132.268C94.5755 132.071 94.3085 131.96 94.03 131.96V131.96ZM44.93 136.26H21.72C21.5755 136.26 21.4325 136.288 21.299 136.344C21.1656 136.399 21.0443 136.48 20.9422 136.582C20.84 136.684 20.759 136.806 20.7037 136.939C20.6484 137.072 20.62 137.216 20.62 137.36C20.62 137.504 20.6484 137.647 20.7037 137.781C20.759 137.914 20.84 138.036 20.9422 138.138C21.0443 138.24 21.1656 138.321 21.299 138.376C21.4325 138.432 21.5755 138.46 21.72 138.46H44.92C45.2117 138.46 45.4915 138.344 45.6978 138.138C45.9041 137.932 46.02 137.652 46.02 137.36C46.02 137.068 45.9041 136.788 45.6978 136.582C45.4915 136.376 45.2117 136.26 44.92 136.26H44.93ZM57.93 140.56H29.88C29.5856 140.56 29.3033 140.677 29.0951 140.885C28.8869 141.093 28.77 141.376 28.77 141.67C28.77 141.964 28.8869 142.247 29.0951 142.455C29.3033 142.663 29.5856 142.78 29.88 142.78H57.93C58.2244 142.78 58.5067 142.663 58.7149 142.455C58.9231 142.247 59.04 141.964 59.04 141.67C59.04 141.376 58.9231 141.093 58.7149 140.885C58.5067 140.677 58.2244 140.56 57.93 140.56V140.56ZM85.16 140.56H62.26C61.9311 140.56 61.6157 140.691 61.3832 140.923C61.1506 141.156 61.02 141.471 61.02 141.8C61.02 142.129 61.1506 142.444 61.3832 142.677C61.6157 142.909 61.9311 143.04 62.26 143.04H85.16C85.4684 143.012 85.7552 142.87 85.9641 142.642C86.1729 142.413 86.2888 142.115 86.2888 141.805C86.2888 141.495 86.1729 141.197 85.9641 140.968C85.7552 140.74 85.4684 140.598 85.16 140.57V140.56ZM51.07 144.86H29.77C29.4942 144.86 29.2296 144.97 29.0346 145.165C28.8396 145.36 28.73 145.624 28.73 145.9C28.73 146.176 28.8396 146.44 29.0346 146.635C29.2296 146.83 29.4942 146.94 29.77 146.94H51.07C51.3458 146.94 51.6104 146.83 51.8054 146.635C52.0004 146.44 52.11 146.176 52.11 145.9C52.11 145.624 52.0004 145.36 51.8054 145.165C51.6104 144.97 51.3458 144.86 51.07 144.86ZM101.43 144.86H55.5C55.2211 144.897 54.9651 145.034 54.7797 145.245C54.5942 145.457 54.492 145.729 54.492 146.01C54.492 146.291 54.5942 146.563 54.7797 146.775C54.9651 146.986 55.2211 147.123 55.5 147.16H101.43C101.709 147.123 101.965 146.986 102.15 146.775C102.336 146.563 102.438 146.291 102.438 146.01C102.438 145.729 102.336 145.457 102.15 145.245C101.965 145.034 101.709 144.897 101.43 144.86ZM40.17 150.68H12.1C11.8056 150.68 11.5233 150.797 11.3151 151.005C11.1069 151.213 10.99 151.496 10.99 151.79C10.99 152.084 11.1069 152.367 11.3151 152.575C11.5233 152.783 11.8056 152.9 12.1 152.9H40.16C40.4544 152.9 40.7367 152.783 40.9449 152.575C41.1531 152.367 41.27 152.084 41.27 151.79C41.27 151.496 41.1531 151.213 40.9449 151.005C40.7367 150.797 40.4544 150.68 40.16 150.68H40.17ZM28.44 154.98H12.04C11.7628 154.98 11.497 155.09 11.3011 155.286C11.1051 155.482 10.995 155.748 10.995 156.025C10.995 156.302 11.1051 156.568 11.3011 156.764C11.497 156.96 11.7628 157.07 12.04 157.07H28.44C28.7171 157.07 28.9829 156.96 29.1789 156.764C29.3749 156.568 29.485 156.302 29.485 156.025C29.485 155.748 29.3749 155.482 29.1789 155.286C28.9829 155.09 28.7171 154.98 28.44 154.98V154.98ZM94.03 154.98H37.98C37.8421 154.98 37.7056 155.007 37.5782 155.06C37.4508 155.113 37.335 155.19 37.2375 155.288C37.14 155.385 37.0627 155.501 37.0099 155.628C36.9572 155.756 36.93 155.892 36.93 156.03C36.93 156.168 36.9572 156.304 37.0099 156.432C37.0627 156.559 37.14 156.675 37.2375 156.772C37.335 156.87 37.4508 156.947 37.5782 157C37.7056 157.053 37.8421 157.08 37.98 157.08H94.03C94.3085 157.08 94.5755 156.969 94.7725 156.772C94.9694 156.576 95.08 156.308 95.08 156.03C95.08 155.752 94.9694 155.484 94.7725 155.288C94.5755 155.091 94.3085 154.98 94.03 154.98V154.98Z" fill="#3CD3C1"/>
<path d="M423 80.65H317C314.791 80.65 313 82.4409 313 84.65V145.65C313 147.859 314.791 149.65 317 149.65H423C425.209 149.65 427 147.859 427 145.65V84.65C427 82.4409 425.209 80.65 423 80.65Z" fill="#FAFAFA"/>
<path opacity="0.7" d="M353.17 93.65H325.1C324.806 93.65 324.523 93.7669 324.315 93.9751C324.107 94.1833 323.99 94.4656 323.99 94.76C323.99 95.0544 324.107 95.3367 324.315 95.5449C324.523 95.7531 324.806 95.87 325.1 95.87H353.16C353.454 95.87 353.737 95.7531 353.945 95.5449C354.153 95.3367 354.27 95.0544 354.27 94.76C354.27 94.4656 354.153 94.1833 353.945 93.9751C353.737 93.7669 353.454 93.65 353.16 93.65H353.17ZM341.44 97.94H325.04C324.763 97.94 324.497 98.0501 324.301 98.2461C324.105 98.442 323.995 98.7078 323.995 98.985C323.995 99.2622 324.105 99.528 324.301 99.7239C324.497 99.9199 324.763 100.03 325.04 100.03H341.44C341.717 100.03 341.983 99.9199 342.179 99.7239C342.375 99.528 342.485 99.2622 342.485 98.985C342.485 98.7078 342.375 98.442 342.179 98.2461C341.983 98.0501 341.717 97.94 341.44 97.94ZM407.03 97.94H350.98C350.702 97.94 350.434 98.0506 350.238 98.2475C350.041 98.4444 349.93 98.7115 349.93 98.99C349.93 99.2685 350.041 99.5355 350.238 99.7325C350.434 99.9294 350.702 100.04 350.98 100.04H407.03C407.308 100.04 407.576 99.9294 407.772 99.7325C407.969 99.5355 408.08 99.2685 408.08 98.99C408.08 98.7115 407.969 98.4444 407.772 98.2475C407.576 98.0506 407.308 97.94 407.03 97.94V97.94ZM357.93 102.26H334.72C334.428 102.26 334.148 102.376 333.942 102.582C333.736 102.788 333.62 103.068 333.62 103.36C333.62 103.652 333.736 103.932 333.942 104.138C334.148 104.344 334.428 104.46 334.72 104.46H357.92C358.212 104.46 358.492 104.344 358.698 104.138C358.904 103.932 359.02 103.652 359.02 103.36C359.02 103.068 358.904 102.788 358.698 102.582C358.492 102.376 358.212 102.26 357.92 102.26H357.93ZM370.93 106.55H342.88C342.586 106.55 342.303 106.667 342.095 106.875C341.887 107.083 341.77 107.366 341.77 107.66C341.77 107.954 341.887 108.237 342.095 108.445C342.303 108.653 342.586 108.77 342.88 108.77H370.93C371.224 108.77 371.507 108.653 371.715 108.445C371.923 108.237 372.04 107.954 372.04 107.66C372.04 107.366 371.923 107.083 371.715 106.875C371.507 106.667 371.224 106.55 370.93 106.55ZM398.15 106.55H375.25C374.942 106.578 374.655 106.72 374.446 106.948C374.237 107.177 374.121 107.475 374.121 107.785C374.121 108.095 374.237 108.393 374.446 108.622C374.655 108.85 374.942 108.992 375.25 109.02H398.15C398.322 109.035 398.494 109.015 398.658 108.96C398.821 108.905 398.971 108.816 399.098 108.7C399.225 108.584 399.326 108.443 399.396 108.285C399.465 108.128 399.501 107.957 399.501 107.785C399.501 107.613 399.465 107.442 399.396 107.285C399.326 107.127 399.225 106.986 399.098 106.87C398.971 106.754 398.821 106.665 398.658 106.61C398.494 106.555 398.322 106.535 398.15 106.55V106.55ZM364.06 110.86H342.76C342.484 110.86 342.22 110.97 342.025 111.165C341.83 111.36 341.72 111.624 341.72 111.9C341.72 112.176 341.83 112.44 342.025 112.635C342.22 112.83 342.484 112.94 342.76 112.94H364.06C364.336 112.94 364.6 112.83 364.795 112.635C364.99 112.44 365.1 112.176 365.1 111.9C365.1 111.624 364.99 111.36 364.795 111.165C364.6 110.97 364.336 110.86 364.06 110.86V110.86ZM414.43 110.86H368.5C368.336 110.838 368.17 110.852 368.012 110.9C367.854 110.948 367.708 111.029 367.583 111.138C367.459 111.247 367.36 111.381 367.291 111.531C367.223 111.682 367.188 111.845 367.188 112.01C367.188 112.175 367.223 112.338 367.291 112.489C367.36 112.639 367.459 112.773 367.583 112.882C367.708 112.991 367.854 113.072 368.012 113.12C368.17 113.168 368.336 113.182 368.5 113.16H414.43C414.709 113.123 414.965 112.986 415.15 112.775C415.336 112.563 415.438 112.291 415.438 112.01C415.438 111.729 415.336 111.457 415.15 111.245C414.965 111.034 414.709 110.897 414.43 110.86V110.86ZM353.17 116.68H325.1C324.806 116.68 324.523 116.797 324.315 117.005C324.107 117.213 323.99 117.496 323.99 117.79C323.99 118.084 324.107 118.367 324.315 118.575C324.523 118.783 324.806 118.9 325.1 118.9H353.16C353.454 118.9 353.737 118.783 353.945 118.575C354.153 118.367 354.27 118.084 354.27 117.79C354.27 117.496 354.153 117.213 353.945 117.005C353.737 116.797 353.454 116.68 353.16 116.68H353.17ZM341.44 120.97H325.04C324.764 120.97 324.5 121.08 324.305 121.275C324.11 121.47 324 121.734 324 122.01C324 122.286 324.11 122.55 324.305 122.745C324.5 122.94 324.764 123.05 325.04 123.05H341.44C341.716 123.05 341.98 122.94 342.175 122.745C342.37 122.55 342.48 122.286 342.48 122.01C342.48 121.734 342.37 121.47 342.175 121.275C341.98 121.08 341.716 120.97 341.44 120.97V120.97ZM407.03 120.97H350.98C350.702 120.97 350.434 121.081 350.238 121.278C350.041 121.474 349.93 121.742 349.93 122.02C349.93 122.298 350.041 122.566 350.238 122.762C350.434 122.959 350.702 123.07 350.98 123.07H407.03C407.308 123.07 407.576 122.959 407.772 122.762C407.969 122.566 408.08 122.298 408.08 122.02C408.08 121.742 407.969 121.474 407.772 121.278C407.576 121.081 407.308 120.97 407.03 120.97V120.97ZM357.93 125.27H334.72C334.428 125.27 334.148 125.386 333.942 125.592C333.736 125.798 333.62 126.078 333.62 126.37C333.62 126.662 333.736 126.942 333.942 127.148C334.148 127.354 334.428 127.47 334.72 127.47H357.92C358.212 127.47 358.492 127.354 358.698 127.148C358.904 126.942 359.02 126.662 359.02 126.37C359.02 126.078 358.904 125.798 358.698 125.592C358.492 125.386 358.212 125.27 357.92 125.27H357.93ZM370.93 129.58H342.88C342.586 129.58 342.303 129.697 342.095 129.905C341.887 130.113 341.77 130.396 341.77 130.69C341.77 130.984 341.887 131.267 342.095 131.475C342.303 131.683 342.586 131.8 342.88 131.8H370.93C371.224 131.8 371.507 131.683 371.715 131.475C371.923 131.267 372.04 130.984 372.04 130.69C372.04 130.396 371.923 130.113 371.715 129.905C371.507 129.697 371.224 129.58 370.93 129.58V129.58ZM398.15 129.58H375.25C374.942 129.608 374.655 129.75 374.446 129.978C374.237 130.207 374.121 130.505 374.121 130.815C374.121 131.125 374.237 131.423 374.446 131.652C374.655 131.88 374.942 132.022 375.25 132.05H398.15C398.322 132.065 398.494 132.045 398.658 131.99C398.821 131.935 398.971 131.846 399.098 131.73C399.225 131.614 399.326 131.473 399.396 131.315C399.465 131.158 399.501 130.987 399.501 130.815C399.501 130.643 399.465 130.472 399.396 130.315C399.326 130.157 399.225 130.016 399.098 129.9C398.971 129.784 398.821 129.695 398.658 129.64C398.494 129.585 398.322 129.565 398.15 129.58V129.58ZM364.06 133.88H342.76C342.483 133.88 342.217 133.99 342.021 134.186C341.825 134.382 341.715 134.648 341.715 134.925C341.715 135.202 341.825 135.468 342.021 135.664C342.217 135.86 342.483 135.97 342.76 135.97H364.06C364.337 135.97 364.603 135.86 364.799 135.664C364.995 135.468 365.105 135.202 365.105 134.925C365.105 134.648 364.995 134.382 364.799 134.186C364.603 133.99 364.337 133.88 364.06 133.88ZM414.43 133.88H368.5C368.339 133.865 368.177 133.884 368.024 133.935C367.871 133.986 367.73 134.069 367.611 134.178C367.492 134.286 367.397 134.419 367.331 134.566C367.266 134.714 367.232 134.874 367.232 135.035C367.232 135.196 367.266 135.356 367.331 135.504C367.397 135.651 367.492 135.784 367.611 135.892C367.73 136.001 367.871 136.084 368.024 136.135C368.177 136.186 368.339 136.205 368.5 136.19H414.43C414.709 136.153 414.965 136.016 415.15 135.805C415.336 135.593 415.438 135.321 415.438 135.04C415.438 134.759 415.336 134.487 415.15 134.275C414.965 134.064 414.709 133.927 414.43 133.89V133.88Z" fill="#3CD3C1"/>
<defs>
<linearGradient id="paint0_linear" x1="172" y1="221.16" x2="243.05" y2="221.16" gradientUnits="userSpaceOnUse">
<stop stop-color="#010101" stop-opacity="0"/>
<stop offset="0.95" stop-color="#525369"/>
</linearGradient>
<linearGradient id="paint1_linear" x1="15215.6" y1="13483.2" x2="19587.6" y2="13483.2" gradientUnits="userSpaceOnUse">
<stop stop-color="#191C3E" stop-opacity="0.33"/>
<stop offset="0.95" stop-color="#010101"/>
</linearGradient>
<linearGradient id="paint2_linear" x1="10322.9" y1="4708.97" x2="10310.5" y2="5828.92" gradientUnits="userSpaceOnUse">
<stop stop-color="#010101" stop-opacity="0"/>
<stop offset="0.95" stop-color="#010101"/>
</linearGradient>
</defs>
</svg>
